<?xml version="1.0" encoding="iso-8859-1"?>
<!-- Generator: Adobe Illustrator 18.0.0, SVG Export Plug-In . SVG Version: 6.00 Build 0)  -->
<!DOCTYPE svg PUBLIC "-//W3C//DTD SVG 1.1//EN" "http://www.w3.org/Graphics/SVG/1.1/DTD/svg11.dtd">
<svg version="1.1" id="Capa_1" xmlns="http://www.w3.org/2000/svg" xmlns:xlink="http://www.w3.org/1999/xlink" x="0px" y="0px"
	 viewBox="0 0 297 297" style="enable-background:new 0 0 297 297;" xml:space="preserve">
<g>
	<circle cx="149.496" cy="58.433" r="49.332"/>
	<path d="M149.497,192.974c1.42,0,2.652-1.011,2.931-2.403l14.249-71.243c-5.467,1.545-11.225,2.39-17.18,2.39
		c-5.956,0-11.714-0.845-17.18-2.39l14.248,71.242C146.844,191.963,148.077,192.974,149.497,192.974z"/>
	<path d="M225.783,237.193l48.42-40.547l-8.373-29.344c-1.222-4.28-5.133-7.23-9.583-7.23h-83.49l-6.646,33.233
		c-1.578,7.892-8.566,13.62-16.613,13.62c-8.049,0-15.036-5.729-16.613-13.621l-6.646-33.232H40.753c-4.45,0-8.361,2.95-9.583,7.23
		l-9.311,32.63L225.783,237.193z"/>
	<path d="M296.617,275.198l-18.223-63.862l-91.43,76.563h100.069c3.127,0,6.072-1.468,7.955-3.963
		C296.873,281.439,297.475,278.205,296.617,275.198z"/>
	<polygon points="59.156,220.931 59.156,287.899 165.232,287.899 211.881,248.835 	"/>
	<path d="M45.204,218.382l-27.191-4.969l-17.63,61.785c-0.857,3.007-0.256,6.241,1.628,8.738c1.883,2.495,4.828,3.963,7.955,3.963
		h35.238V218.382z"/>
</g>
<g>
</g>
<g>
</g>
<g>
</g>
<g>
</g>
<g>
</g>
<g>
</g>
<g>
</g>
<g>
</g>
<g>
</g>
<g>
</g>
<g>
</g>
<g>
</g>
<g>
</g>
<g>
</g>
<g>
</g>
</svg>
